<svg width="1542" height="235" viewBox="0 0 1542 235" fill="none" xmlns="http://www.w3.org/2000/svg">
  <g clip-path="url(#clip0_1182_4635)">
    <path d="M93.8315 193.844C62.3346 193.844 44.2504 176.729 44.2504 147.114C44.2504 117.5 61.3315 100.385 91.1661 100.385C104.894 100.385 119.31 104.016 133.726 110.575L147.138 75.3588C132.723 67.1388 114.294 61.1991 91.1948 61.1991C35.5092 61.2272 0 94.1351 0 147.114C0 200.093 36.5123 233.001 94.4906 233.001C117.934 233.001 137.709 227.09 152.125 218.842L138.712 183.625C124.297 190.213 108.219 193.816 93.8028 193.816L93.8315 193.844Z" fill="white" />
    <path d="M347.469 221.488V147.762C347.469 96.0775 310.956 61.1991 256.675 61.1991C202.394 61.1991 166.541 96.0775 166.541 147.762C166.541 199.446 199.385 234.972 244.953 234.972C273.527 234.972 291.095 221.572 303.333 201.163C304.135 217.744 316.43 230.355 329.041 230.355H351.481V230.017C348.128 228.385 347.469 225.738 347.469 221.46V221.488ZM210.763 148.1C210.763 119.471 229.191 100.385 256.99 100.385C284.79 100.385 303.218 119.471 303.218 148.1C303.218 176.729 284.79 195.815 256.99 195.815C229.191 195.815 210.763 176.729 210.763 148.1Z" fill="white" />
    <path d="M492.228 157.643C515.672 151.731 530.431 132.645 530.431 107.619C530.431 79.6377 511 61.2273 481.51 61.2273C460.072 61.2273 438.635 69.4472 424.878 80.6511V65.844H380.656V230.412H424.878V119.837C438.606 108.323 454.025 101.088 468.097 100.751C480.163 100.413 486.869 107.338 486.869 119.499C486.869 135.629 471.45 147.79 447.003 151.759C477.841 175.8 490.91 196.181 496.584 230.412H543.5C533.441 196.518 514.009 168.537 492.228 157.671V157.643Z" fill="white" />
    <path d="M750.222 61.2273C725.087 61.2273 702.303 71.4178 683.216 91.5172C664.129 71.4459 641.344 61.2273 616.21 61.2273C575.341 61.2273 551.554 88.2236 551.554 131.012C551.554 173.801 573.335 206.371 613.201 230.412H667.138C614.204 194.548 595.775 171.493 595.775 142.216C595.775 115.22 610.85 100.413 637.332 100.413C659.113 100.413 676.194 110.941 683.244 128.704C690.295 110.941 707.376 100.413 729.157 100.413C755.639 100.413 770.714 115.22 770.714 142.216C770.714 171.521 752.285 194.548 699.351 230.412H753.289C793.154 206.399 814.935 172.478 814.935 131.012C814.935 89.5467 791.148 61.2273 750.279 61.2273H750.222Z" fill="white" />
    <path d="M1017.96 221.488V147.762C1017.96 96.0775 981.447 61.1991 927.166 61.1991C872.885 61.1991 837.032 96.0775 837.032 147.762C837.032 199.446 869.876 234.972 915.444 234.972C944.018 234.972 961.586 221.572 973.824 201.163C974.626 217.744 986.921 230.355 999.532 230.355H1021.97V230.017C1018.62 228.385 1017.96 225.738 1017.96 221.46V221.488ZM881.253 148.1C881.253 119.471 899.682 100.385 927.481 100.385C955.281 100.385 973.709 119.471 973.709 148.1C973.709 176.729 955.281 195.815 927.481 195.815C899.682 195.815 881.253 176.729 881.253 148.1Z" fill="white" />
    <path d="M1151.66 189.565C1147.64 191.536 1142.94 192.521 1137.58 192.521C1120.5 192.521 1109.78 181.007 1109.78 162.231V104.973H1167.42L1167.08 65.8157H1084.94C1102.91 61.3961 1126.55 45.1815 1126.55 21.0565H1079.32C1071.95 41.4656 1061.55 56.2727 1036.1 65.8157V104.973H1065.59V168.171C1065.59 207.328 1094.39 234.972 1133.6 234.972C1150.02 234.972 1163.44 229.708 1173.81 219.827L1161.09 180.979C1161.09 180.979 1156.07 187.566 1151.71 189.537L1151.66 189.565Z" fill="white" />
    <path d="M1284.01 193.844C1252.51 193.844 1234.43 176.729 1234.43 147.114C1234.43 117.5 1251.51 100.385 1281.34 100.385C1295.07 100.385 1309.48 104.016 1323.9 110.575L1337.31 75.3588C1322.9 67.1388 1304.47 61.1991 1281.37 61.1991C1225.74 61.1991 1190.23 94.107 1190.23 147.086C1190.23 200.065 1226.74 232.973 1284.72 232.973C1308.17 232.973 1327.94 227.062 1342.36 218.814L1328.94 183.597C1314.53 190.184 1298.45 193.788 1284.04 193.788L1284.01 193.844Z" fill="white" />
    <path d="M1478 61.2272C1450.52 61.2272 1421.72 73.726 1410.65 91.5171V0H1366.43V230.383H1410.65V132.645C1417.7 114.882 1439.46 100.385 1460.92 100.385C1483.71 100.385 1497.78 116.177 1497.78 141.203C1497.78 169.184 1481.01 206.371 1457.57 230.383H1501.79C1526.24 209.636 1542 172.45 1542 134.615C1542 88.871 1518.87 61.2272 1478 61.2272Z" fill="white" />
  </g>
  <defs>
    <clipPath id="clip0_1182_4635">
      <rect width="1542" height="235" fill="white" />
    </clipPath>
  </defs>
</svg>